PathFileType	4	(X/Y/Z)	33_2_105_p1_0-441_filt_butterworth.trc
DataRate	CameraRate	NumFrames	NumMarkers	Units	OrigDataRate	OrigDataStartFrame	OrigNumFrames
59.0	59.0	6	27	m	59.0	385	441
Frame#	Time	RHip			RKnee			RAnkle			RBigToe			RSmallToe			RHeel			LHip			LKnee			LAnkle			LBigToe			LSmallToe			LHeel			Neck			Head			Nose			RShoulder			RElbow			RWrist			RThumb			RIndex			RPinky			LShoulder			LElbow			LWrist			LThumb			LIndex			LPinky			
		X1	Y1	Z1	X2	Y2	Z2	X3	Y3	Z3	X4	Y4	Z4	X5	Y5	Z5	X6	Y6	Z6	X7	Y7	Z7	X8	Y8	Z8	X9	Y9	Z9	X10	Y10	Z10	X11	Y11	Z11	X12	Y12	Z12	X13	Y13	Z13	X14	Y14	Z14	X15	Y15	Z15	X16	Y16	Z16	X17	Y17	Z17	X18	Y18	Z18	X19	Y19	Z19	X20	Y20	Z20	X21	Y21	Z21	X22	Y22	Z22	X23	Y23	Z23	X24	Y24	Z24	X25	Y25	Z25	X26	Y26	Z26	X27	Y27	Z27	
385	6.52542372881356	0.2602997835708765	0.2955917302246709	0.2231259317464281	0.25513623510476746	0.48436361064976685	0.5896012279117625	0.24436627184559695	0.7293817294528963	0.9308364679995571	0.21394871324592454	0.5143201392912621	0.9852571320416953	0.26570868034869055	0.5329993706222591	0.9872631109375556	0.24057497354905294	0.9073954842007881	0.9984378732392777	0.06282962388940957	0.2537050494509546	0.19801314596848074	0.05927416571626606	0.4600955637473228	0.583052788153868	0.0952133550558038	0.7967859782600042	0.9497771420012959	0.10359174323348731	0.5286528950522084	0.9762059978196789	0.07004442295867934	0.5931268542007196	0.9822064273250078	0.09488016642248377	0.8715740294512644	0.9851932502781657	0.28592450745502973	0.09287576382195688	-0.3330155070081158	0.4529454430628129	-0.004273640355303187	-0.5140808583863238	0.3981265451258318	-0.03649064374619692	-0.37422326669576356	0.3895689929373723	0.15287352490719994	-0.22670771704937115	0.38782098257397957	0.22979654063252933	0.03200169794753904	0.3430421886245179	0.2342228516885987	0.31199384227782945	0.2798178720129935	0.18959836435785546	0.4330189663349958	0.2923705165855282	0.1781427021436131	0.44678051313783806	0.31788246572373746	0.27440394815283736	0.42736122331600224	0.08011396787564071	0.10962830423687932	-0.32720231000490807	-0.010922076034195488	0.16278434569116124	-0.06994407264619219	0.001531207404669777	0.17637055857440515	0.20136493731185223	0.05391355769860231	0.21825502423081264	0.28622268514271465	0.01940772141596628	0.20209755927318018	0.3035731815720623	-0.007418242859902339	0.2094051598380473	0.3006313184878037
386	6.5423728813559325	0.25910919052042763	0.29429917507503217	0.2227456754300727	0.25372765841644906	0.4782454325952949	0.5872525379719176	0.24442639606121924	0.7291862167640689	0.92899460790253	0.2138537019557741	0.5184571032126761	0.9853914468490508	0.2670069484006757	0.5331813716600242	0.9872205906623446	0.23907606759309455	0.9071390046350745	0.9979894838830617	0.06340036438486213	0.25153677381970824	0.19757513547386132	0.05920203621319148	0.46022829846856866	0.5824559816983617	0.09523768455864645	0.79669773237739	0.9498807889364577	0.10365067946213394	0.5285880898421977	0.9762094590756161	0.07010442572186079	0.5929695278452222	0.9826279549070203	0.09426913606686432	0.8705144048880561	0.9851662249485491	0.2866009229737224	0.09601075944774262	-0.33330463045930325	0.454757556863274	-0.004849722853218821	-0.5117996008360618	0.40032620212869424	-0.03684918217342173	-0.374518385746592	0.3902942151438348	0.15571698413198076	-0.22744459217007396	0.3862553109590362	0.23260986499606567	0.03295034087850242	0.3443256609335997	0.2244106707090419	0.312512128590316	0.2814103778590181	0.18591985051098317	0.4324656644266099	0.2925691079232028	0.17214455426446523	0.4463945844610577	0.31316858147986293	0.2672000194182683	0.4264788696384115	0.08170075145706185	0.10606740980797535	-0.32592971469405774	-0.011942725241844547	0.16981068507210906	-0.0721601462335358	-0.0018380232842123792	0.17666198419406937	0.2020762625466043	0.03475658328791768	0.2153928477510481	0.28836145332658797	0.007487211919271396	0.2099913024272685	0.3104078057141425	-0.015081541278968472	0.21517614866399892	0.30150461685314844
387	6.559322033898305	0.2584929123341362	0.2926808239383415	0.22182777264896375	0.2527765638653632	0.4743172166629116	0.5851030306220666	0.24447554181358208	0.729052089419675	0.9281866611160641	0.2158444924196545	0.5244294754470379	0.9854948462488533	0.2684227340048714	0.5334760276828495	0.987006800021115	0.2383355094789945	0.9054906625327316	0.9979780075036262	0.0632938417369463	0.25049728578023883	0.19688985686775673	0.05899613699987826	0.4604951144608929	0.5832118411883237	0.09524356574584261	0.7966076004225715	0.9501303288770622	0.10363216416456936	0.5285122064532545	0.9762645398645152	0.07078879687672679	0.5888412093157531	0.9836423317376323	0.09440963716357344	0.8696501358641784	0.9853837353179205	0.2875772653244391	0.10008541410529787	-0.3344648629522319	0.45740836820106223	-0.007738661923758605	-0.5098102422763775	0.40244554625225537	-0.03720942000342701	-0.37445443377907695	0.3915759098181072	0.1604586649932115	-0.22949526910024692	0.3859874314449013	0.23510451307031846	0.03239042145099991	0.3482255232522694	0.21006372047356228	0.31204360407567994	0.28308305656623955	0.1821306247240529	0.4316530682815213	0.2948840239624876	0.16428000693149325	0.44588641796237916	0.30797922806740385	0.2574209641569202	0.42549576091688196	0.08345621810445567	0.10317911996621064	-0.3248944842015839	-0.013749174897122268	0.17864780130041902	-0.07347712865004878	-0.005663829785915652	0.1790692403640692	0.20255788368634464	0.01785646064317369	0.21274702357884717	0.2912923492935121	-0.0001371542169941167	0.21422769874371464	0.3174727414517486	-0.028247652892895395	0.2277281204408648	0.3023546183346255
388	6.576271186440678	0.25864285265743847	0.2915632691747244	0.21987440359572039	0.2528761130104693	0.4753600451344948	0.5838925780026107	0.24439266433845808	0.7289499524421376	0.9285510551449399	0.21707002742793924	0.5255289400777149	0.9854932564768023	0.26819646088686144	0.5330158215829446	0.9867436941170014	0.2398904736419482	0.9007485147623624	0.9976684122285892	0.06301878781029417	0.25021094885322287	0.1959118163821939	0.058769683002922894	0.4608333414587597	0.5839788059023813	0.09511992165923557	0.7967702076567251	0.9506305793078309	0.1035467928190488	0.5284425946731592	0.9763401159543622	0.07215391204901112	0.5831678366391818	0.9843918173725614	0.09469887829895816	0.8673165858520295	0.9857381985625684	0.28834395402950785	0.10327729724300552	-0.3356603215871574	0.4591673423788215	-0.010657680222397986	-0.5088637623524108	0.4036731879082378	-0.03731964280321098	-0.37433520287780775	0.3931978096309336	0.16624473055310648	-0.23211882660098726	0.38673906136369285	0.2379626623820531	0.03008930169702452	0.35324805614432164	0.1934960766376918	0.30911616650465107	0.28517268688436886	0.175865881580954	0.43093053171621465	0.2995683004319018	0.15207511510358834	0.4449203574371796	0.3033436116804314	0.24253980929125513	0.42467907331755	0.08479239072020944	0.10198573134309862	-0.32443710455165553	-0.015938265447946565	0.18478748474280107	-0.07355027057773589	-0.011004608796371582	0.18575994744098326	0.20177210444091134	0.006488445694855341	0.2123075215114245	0.2946192565363187	-0.006343291011979317	0.21743670127345527	0.3220373437037767	-0.045559712008075945	0.24407739872589118	0.3031700850103582
389	6.593220338983051	0.25972673623486303	0.29212427629334525	0.21629807411072818	0.2537129641230417	0.47978329667874464	0.583171644346552	0.24423025113477226	0.7288912452489532	0.9294079082577619	0.21607999342256057	0.5182288188926562	0.9851827462478001	0.267081761281332	0.5307212966314371	0.986472663843099	0.24329442514046917	0.8940057226769339	0.9969839340510349	0.06267690463799333	0.2513447081523249	0.19431720101695404	0.0585629461429809	0.46098253875628126	0.5833662121199863	0.0948129266206877	0.797420382935299	0.9516163895930396	0.10338248230664113	0.5285095013083997	0.9764450059776325	0.07384784584702207	0.5789111161120594	0.9847106568664981	0.09511167202878061	0.8659684424083413	0.9865668907274371	0.2886416980979467	0.10459680522181541	-0.33653950851279846	0.4590493055521957	-0.012572064958860783	-0.5094479257887621	0.4040341906946636	-0.037181732759377806	-0.374297876390438	0.3947102980682706	0.17149536647747002	-0.23427430147565123	0.38790774770634406	0.24105090252928904	0.026351183354384865	0.35755185228916353	0.17942753068909637	0.30279775884114446	0.2887011253095607	0.16303084279715832	0.4301751776332543	0.3053737561330295	0.1352654700043679	0.4431415024507075	0.3013047672596413	0.2203603904446458	0.4244748292235187	0.08535456708624103	0.10214125967315002	-0.3243644991139775	-0.018435504457135543	0.1871598320531924	-0.07320749841459513	-0.019713926503005283	0.19782338923525755	0.19972701703388582	0.0002806689057676887	0.21232933740237145	0.29764515516061363	-0.013801859101186417	0.22027606062763871	0.3227016176970064	-0.06264746092934168	0.2568309264154083	0.30405224326169966
390	6.610169491525424	0.261479043206687	0.29545102704461174	0.21123860884827725	0.25458407459198207	0.48387745724391384	0.5823402399975421	0.24411404608136467	0.7288838249091356	0.9300528487996956	0.21415011211839685	0.5059170836651969	0.9845425124893422	0.26677611455786515	0.5258243761115446	0.9862001111665321	0.2463339262931403	0.8885508116240932	0.9963608508058831	0.062152138265923584	0.2544741972243286	0.1916331297472419	0.0582722023319381	0.4605276411993979	0.5801173560922841	0.09447563131209316	0.7985362083407552	0.9529872176577536	0.10325718006601213	0.5287064461986154	0.9765555334254892	0.07514524688351187	0.5763653417284074	0.9848594981141613	0.09552414348484	0.8671158771387677	0.9878725462829733	0.28862696956110057	0.10443375159759995	-0.337494712048618	0.4576200573350953	-0.014178543902411064	-0.5114336314797848	0.4040065245758584	-0.03699006924726505	-0.3743232478676965	0.395667195166039	0.1747000530504535	-0.2354730199702057	0.3888609459114392	0.24309109543123658	0.022388291381921933	0.36072239685182783	0.1707467319040696	0.29413555926107476	0.29428462754774787	0.14220024531633993	0.4287220222438544	0.3105131953809602	0.11749535064566671	0.4406405824857331	0.3040494664218735	0.19180307282395243	0.42525650272863935	0.08541534292434556	0.10287693929353872	-0.3243873196918259	-0.021237361026310155	0.18735642299487906	-0.07383345782263355	-0.03187908926880782	0.21370560113227124	0.19734884284862875	-0.0027566364728457407	0.2114699172510983	0.2993835069219684	-0.02416375536119057	0.22434479836969373	0.3203231960252348	-0.07562605848344343	0.26109287338915027	0.30489796186197016
